<svg width="24" height="24" viewBox="0 0 24 24" fill="none" xmlns="http://www.w3.org/2000/svg">
<path d="M16.8199 2H7.17995C5.04995 2 3.31995 3.74 3.31995 5.86V19.95C3.31995 21.75 4.60995 22.51 6.18995 21.64L11.0699 18.93C11.5899 18.64 12.4299 18.64 12.9399 18.93L17.8199 21.64C19.3999 22.52 20.6899 21.76 20.6899 19.95V5.86C20.6799 3.74 18.9499 2 16.8199 2ZM15.0099 9.75C14.0399 10.1 13.0199 10.28 11.9999 10.28C10.9799 10.28 9.95995 10.1 8.98995 9.75C8.59995 9.61 8.39995 9.18 8.53995 8.79C8.68995 8.4 9.11995 8.2 9.50995 8.34C11.1199 8.92 12.8899 8.92 14.4999 8.34C14.8899 8.2 15.3199 8.4 15.4599 8.79C15.5999 9.18 15.3999 9.61 15.0099 9.75Z" fill="#111827"/>
</svg>
