<svg width="56" height="56" viewBox="0 0 56 56" fill="none" xmlns="http://www.w3.org/2000/svg">
<path d="M33.984 20.938L24.546 30.398L20.916 26.768C20.7188 26.5377 20.4761 26.3506 20.2031 26.2186C19.9302 26.0865 19.6329 26.0123 19.3299 26.0006C19.0269 25.9889 18.7248 26.04 18.4425 26.1506C18.1602 26.2612 17.9038 26.429 17.6894 26.6434C17.475 26.8578 17.3072 27.1142 17.1966 27.3965C17.086 27.6788 17.0349 27.9809 17.0467 28.2839C17.0584 28.5869 17.1326 28.8842 17.2646 29.1571C17.3967 29.4301 17.5837 29.6728 17.814 29.87L22.984 35.062C23.1896 35.2659 23.4334 35.4272 23.7014 35.5367C23.9695 35.6462 24.2565 35.7017 24.546 35.7C25.1232 35.6976 25.6762 35.4684 26.086 35.062L37.086 24.062C37.2922 23.8575 37.4559 23.6142 37.5676 23.3461C37.6793 23.078 37.7368 22.7904 37.7368 22.5C37.7368 22.2096 37.6793 21.922 37.5676 21.6539C37.4559 21.3858 37.2922 21.1425 37.086 20.938C36.6738 20.5282 36.1162 20.2983 35.535 20.2983C34.9538 20.2983 34.3962 20.5282 33.984 20.938ZM28 6C23.6488 6 19.3953 7.29028 15.7775 9.70767C12.1596 12.1251 9.33979 15.561 7.67466 19.581C6.00953 23.6009 5.57386 28.0244 6.42273 32.292C7.27161 36.5596 9.3669 40.4796 12.4437 43.5563C15.5204 46.6331 19.4404 48.7284 23.708 49.5773C27.9756 50.4261 32.3991 49.9905 36.419 48.3253C40.439 46.6602 43.8749 43.8404 46.2923 40.2225C48.7097 36.6047 50 32.3512 50 28C50 25.1109 49.431 22.2501 48.3254 19.581C47.2197 16.9118 45.5992 14.4865 43.5564 12.4436C41.5135 10.4008 39.0882 8.78025 36.419 7.67465C33.7499 6.56905 30.8891 6 28 6ZM28 45.6C24.5191 45.6 21.1163 44.5678 18.222 42.6339C15.3277 40.6999 13.0718 37.9512 11.7397 34.7352C10.4076 31.5192 10.0591 27.9805 10.7382 24.5664C11.4173 21.1523 13.0935 18.0163 15.5549 15.5549C18.0163 13.0935 21.1524 11.4173 24.5664 10.7382C27.9805 10.0591 31.5193 10.4076 34.7352 11.7397C37.9512 13.0718 40.7 15.3277 42.6339 18.222C44.5678 21.1163 45.6 24.519 45.6 28C45.6 32.6678 43.7457 37.1444 40.4451 40.4451C37.1444 43.7457 32.6678 45.6 28 45.6Z" fill="#04CE9D"/>
</svg>
