<svg width="24" height="24" viewBox="0 0 24 24" fill="none" xmlns="http://www.w3.org/2000/svg">
<path d="M23.9963 14.1694C23.9985 13.6759 23.9209 11.814 23.8617 11.2815C23.1792 5.17009 18.219 0.734589 12.0683 0.734589C5.66178 0.734589 0.471058 5.67109 0.118909 12.2167C0.111409 12.3596 0.0589092 13.3732 0.0551592 13.9766L0.0532842 14.3122C0.0225342 14.451 0.00378418 14.5942 0.00378418 14.742V21.273C0.00378418 22.3717 0.897409 23.2653 1.99616 23.2653H4.01853C5.11728 23.2653 6.01126 22.3717 6.01126 21.273V14.7423C6.01126 13.6436 5.11689 12.75 4.01851 12.75H1.99539C1.8601 12.75 1.72517 12.7637 1.59264 12.7908C1.60389 12.5475 1.61401 12.3551 1.61664 12.2974C1.92566 6.56024 6.47139 2.23461 12.0683 2.23461C17.442 2.23461 21.7744 6.10986 22.3706 11.4484C22.3961 11.6711 22.4284 12.2374 22.4543 12.8059C22.308 12.7721 22.1588 12.75 22.0035 12.75H20.0048C18.906 12.75 18.0124 13.6436 18.0124 14.7423V21.2501C18.0124 22.3492 18.906 23.2424 20.0048 23.2424H22.0035C23.1023 23.2424 23.9963 22.3488 23.9963 21.2501V14.7423C23.9963 14.6201 23.9813 14.5012 23.9595 14.3857C23.9813 14.3167 23.9955 14.2447 23.9963 14.1693V14.1694ZM1.99541 14.25H4.01778C4.28966 14.25 4.51051 14.4705 4.51051 14.7423V21.2733C4.51051 21.5456 4.28926 21.7657 4.01776 21.7657H1.99539C1.72351 21.7657 1.50301 21.5452 1.50301 21.2733V14.7423C1.50376 14.4705 1.72426 14.25 1.99541 14.25ZM22.4963 21.2497C22.4963 21.5216 22.275 21.7421 22.0036 21.7421H20.0048C19.7329 21.7421 19.5124 21.5216 19.5124 21.2497V14.7423C19.5124 14.4705 19.7329 14.25 20.0048 14.25H22.0035C22.2754 14.25 22.4963 14.4705 22.4963 14.7423V21.2497Z" fill="#111827"/>
</svg>
