<svg width="24" height="24" viewBox="0 0 24 24" fill="none" xmlns="http://www.w3.org/2000/svg">
<g id="Filter">
<g id="Filter_2">
<path id="Stroke 1" d="M10.3301 16.5929H4.02942" stroke="#111827" stroke-width="1.5" stroke-linecap="round" stroke-linejoin="round"/>
<path id="Stroke 3" d="M13.1405 6.90036H19.4412" stroke="#111827" stroke-width="1.5" stroke-linecap="round" stroke-linejoin="round"/>
<path id="Stroke 5" fill-rule="evenodd" clip-rule="evenodd" d="M8.72629 6.84625C8.72629 5.5506 7.66813 4.5 6.36314 4.5C5.05816 4.5 4 5.5506 4 6.84625C4 8.14191 5.05816 9.19251 6.36314 9.19251C7.66813 9.19251 8.72629 8.14191 8.72629 6.84625Z" stroke="#111827" stroke-width="1.5" stroke-linecap="round" stroke-linejoin="round"/>
<path id="Stroke 7" fill-rule="evenodd" clip-rule="evenodd" d="M20 16.5538C20 15.2581 18.9426 14.2075 17.6376 14.2075C16.3318 14.2075 15.2737 15.2581 15.2737 16.5538C15.2737 17.8494 16.3318 18.9 17.6376 18.9C18.9426 18.9 20 17.8494 20 16.5538Z" stroke="#111827" stroke-width="1.5" stroke-linecap="round" stroke-linejoin="round"/>
</g>
</g>
</svg>
