<svg width="20" height="19" viewBox="0 0 20 19" fill="none" xmlns="http://www.w3.org/2000/svg">
<g opacity="0.17">
<path d="M15.3361 17.8249H15.2768V17.9134C15.2768 18.3678 14.9084 18.736 14.4541 18.736C13.9997 18.736 13.6315 18.3676 13.6315 17.9134V17.8249H8.79304V17.9134C8.79304 18.3678 8.42462 18.736 7.97038 18.736C7.51589 18.736 7.14771 18.3676 7.14771 17.9134V17.8249H6.90266C4.32612 17.8249 2.23754 15.7363 2.23754 13.1598V12.2327H3.83577V13.1598C3.83577 14.8537 5.20879 16.2267 6.90266 16.2267H15.3361C17.03 16.2267 18.4032 14.8534 18.4032 13.1596V4.72611C18.4032 3.03225 17.03 1.65899 15.3361 1.65899H6.90266C5.20879 1.65899 3.83554 3.03225 3.83554 4.72611V6.09435H2.2373V4.72635C2.2373 2.14982 4.32588 0.0612431 6.90242 0.0612431H15.3359C17.9124 0.0612431 20.001 2.14982 20.001 4.72635V13.1598C20.0012 15.7363 17.9126 17.8249 15.3361 17.8249Z" fill="#9CA3AF"/>
<path d="M8.36966 9.22436C8.36966 9.51078 8.10859 9.74292 7.78631 9.74292H1.19663C0.874593 9.74292 0.613281 9.51078 0.613281 9.22436C0.613281 8.93795 0.874354 8.7058 1.19663 8.7058H7.78655C8.10859 8.7058 8.36966 8.93795 8.36966 9.22436Z" fill="#9CA3AF"/>
<path d="M15.9541 9.0094C16.2936 9.36012 16.4107 9.86625 16.2599 10.3305C16.109 10.7948 15.7167 11.1353 15.2359 11.2194L13.2073 11.5747C13.1158 11.5907 13.0381 11.6471 12.9946 11.7294L12.0299 13.5487C11.8013 13.98 11.3559 14.248 10.8677 14.248C10.3798 14.248 9.93437 13.9803 9.70581 13.549L8.74114 11.7294C8.69762 11.6471 8.61992 11.5907 8.52836 11.5747L8.12671 11.5044H0.628294C0.281394 11.5044 0 11.2723 0 10.9858C0 10.6994 0.281155 10.4673 0.628294 10.4673H8.7856C9.11649 10.4673 9.57743 11.1384 9.63839 11.2534L10.6033 13.073C10.6793 13.2167 10.8135 13.232 10.8677 13.232C10.9218 13.232 11.0561 13.2164 11.1321 13.073L12.0968 11.2534C12.2883 10.8921 12.6292 10.6447 13.0319 10.5739L15.0607 10.2186C15.2206 10.1907 15.2768 10.0678 15.2935 10.0164C15.3103 9.96498 15.337 9.83254 15.2239 9.71587L13.7914 8.23598C13.5069 7.94216 13.3768 7.54146 13.4342 7.13671L13.7233 5.09762C13.746 4.93672 13.6468 4.84539 13.6028 4.81336C13.5588 4.7818 13.4412 4.71534 13.2953 4.78658L11.4451 5.69172C11.0779 5.87127 10.6566 5.87127 10.2894 5.69172L8.43942 4.78682C8.29334 4.71534 8.17596 4.7818 8.13197 4.8136C8.08822 4.84539 7.98876 4.93672 8.01171 5.09762L8.30076 7.13694C8.3053 7.16946 8.30697 7.20197 8.30912 7.23449C8.34737 7.30358 8.37104 7.38032 8.37104 7.46257C8.37104 7.74898 8.10997 7.98113 7.7877 7.98113H1.78112C1.45909 7.98113 1.19778 7.74898 1.19778 7.46257C1.19778 7.17615 1.45885 6.94401 1.78112 6.94401H7.24762L7.00615 5.24035C6.93754 4.75717 7.14051 4.27878 7.53523 3.99189C7.76451 3.82525 8.03514 3.74038 8.30769 3.74038C8.50445 3.74038 8.70217 3.78461 8.88602 3.87474L10.736 4.77965C10.8197 4.82077 10.9155 4.82053 10.999 4.77965L12.849 3.87474C13.2872 3.66029 13.8048 3.70524 14.1997 3.99213C14.5947 4.27902 14.7974 4.75741 14.7291 5.24059L14.44 7.27967C14.4269 7.37172 14.4565 7.46305 14.5213 7.52975L15.9541 9.0094Z" fill="#9CA3AF"/>
</g>
<path d="M15.3361 17.9249H15.2768V18.0133C15.2768 18.4678 14.9084 18.836 14.4541 18.836C13.9997 18.836 13.6315 18.4676 13.6315 18.0133V17.9249H8.79304V18.0133C8.79304 18.4678 8.42462 18.836 7.97038 18.836C7.51589 18.836 7.14771 18.4676 7.14771 18.0133V17.9249H6.90266C4.32612 17.9249 2.23754 15.8363 2.23754 13.2598V12.3326H3.83577V13.2598C3.83577 14.9536 5.2088 16.3266 6.90266 16.3266H15.3361C17.03 16.3266 18.4032 14.9534 18.4032 13.2595V4.8261C18.4032 3.13224 17.03 1.75898 15.3361 1.75898H6.90266C5.2088 1.75898 3.83554 3.13224 3.83554 4.8261V6.19409H2.2373V4.8261C2.2373 2.24957 4.32588 0.160992 6.90242 0.160992H15.3359C17.9124 0.160992 20.001 2.24957 20.001 4.8261V13.2598C20.0012 15.8361 17.9126 17.9249 15.3361 17.9249Z" fill="#9CA3AF"/>
<path d="M8.36966 9.32428C8.36966 9.61069 8.10859 9.84283 7.78631 9.84283H1.19663C0.874593 9.84283 0.613281 9.61069 0.613281 9.32428C0.613281 9.03786 0.874354 8.80572 1.19663 8.80572H7.78655C8.10859 8.80572 8.36966 9.03786 8.36966 9.32428Z" fill="#9CA3AF"/>
<path d="M15.9541 9.10937C16.2936 9.46009 16.4107 9.96622 16.2599 10.4305C16.109 10.8948 15.7167 11.2352 15.2359 11.3194L13.2073 11.6747C13.1158 11.6907 13.0381 11.7471 12.9946 11.8293L12.0299 13.6487C11.8013 14.08 11.3559 14.348 10.8677 14.348C10.3798 14.348 9.93437 14.0803 9.70581 13.649L8.74114 11.8293C8.69762 11.7471 8.61992 11.6907 8.52836 11.6747L8.12671 11.6044H0.628294C0.281394 11.6044 0 11.3722 0 11.0858C0 10.7994 0.281394 10.5675 0.628294 10.5675H8.7856C9.11649 10.5675 9.57743 11.2386 9.63839 11.3536L10.6033 13.1732C10.6793 13.3169 10.8135 13.3322 10.8677 13.3322C10.9218 13.3322 11.0561 13.3166 11.1321 13.1732L12.0968 11.3536C12.2883 10.9923 12.6292 10.7449 13.0319 10.6741L15.0607 10.3189C15.2206 10.2909 15.2768 10.168 15.2935 10.1166C15.3103 10.0652 15.337 9.93275 15.2239 9.81608L13.7914 8.33619C13.5069 8.04237 13.3768 7.64168 13.4342 7.23692L13.7233 5.19783C13.746 5.03693 13.6468 4.94561 13.6028 4.91357C13.5588 4.88201 13.4412 4.81555 13.2953 4.88679L11.4451 5.79194C11.0779 5.97148 10.6566 5.97148 10.2894 5.79194L8.43942 4.88703C8.29334 4.81555 8.17596 4.88201 8.13197 4.91381C8.08822 4.94561 7.98876 5.03693 8.01171 5.19783L8.30076 7.23716C8.3053 7.26967 8.30697 7.30219 8.30912 7.3347C8.34737 7.40379 8.37104 7.48054 8.37104 7.56278C8.37104 7.84919 8.10997 8.08134 7.7877 8.08134H1.78112C1.45909 8.08134 1.19778 7.84919 1.19778 7.56278C1.19778 7.27637 1.45885 7.04422 1.78112 7.04422H7.24762L7.00615 5.34056C6.93754 4.85739 7.14051 4.37899 7.53523 4.0921C7.76451 3.92546 8.03514 3.84059 8.30769 3.84059C8.50445 3.84059 8.70217 3.88482 8.88602 3.97495L10.736 4.87986C10.8197 4.92098 10.9155 4.92074 10.999 4.87986L12.849 3.97495C13.2872 3.7605 13.8048 3.80545 14.1997 4.09234C14.5947 4.37923 14.7974 4.85763 14.7291 5.3408L14.44 7.37989C14.4269 7.47193 14.4565 7.56326 14.5213 7.62996L15.9541 9.10937Z" fill="#9CA3AF"/>
</svg>
