<svg width="24" height="24" viewBox="0 0 24 24" fill="none" xmlns="http://www.w3.org/2000/svg">
<path d="M17.8407 6.53439C17.5413 6.01713 17.0491 5.63958 16.4719 5.48439C16.1869 5.40601 15.8891 5.38554 15.596 5.42419C15.303 5.46283 15.0206 5.55981 14.7657 5.70939C14.4229 5.90707 14.1384 6.19163 13.9407 6.53439L12.4782 4.00314C12.3306 3.74694 12.1339 3.52235 11.8994 3.34221C11.6649 3.16207 11.3973 3.02991 11.1117 2.95329C10.8261 2.87667 10.5282 2.85709 10.2351 2.89567C9.9419 2.93425 9.65922 3.03024 9.40318 3.17814C9.04685 3.38112 8.75454 3.67993 8.55944 4.04064C8.29224 3.72981 7.94521 3.49787 7.55582 3.36987C7.16643 3.24187 6.74947 3.22267 6.34996 3.31434C5.95045 3.40601 5.58358 3.60508 5.28895 3.89004C4.99432 4.175 4.78313 4.53504 4.67818 4.93126C4.5749 5.3087 4.5749 5.70695 4.67818 6.08439C4.39649 6.12418 4.12557 6.21979 3.88131 6.36564C3.62511 6.51326 3.40052 6.70993 3.22038 6.9444C3.04024 7.17887 2.90808 7.44656 2.83146 7.73214C2.75484 8.01773 2.73526 8.31561 2.77384 8.60877C2.81242 8.90193 2.90841 9.1846 3.05631 9.44064L3.39381 10.0219C2.99881 10.0201 2.61048 10.1237 2.26881 10.3219C1.75328 10.6218 1.37723 11.1134 1.22269 11.6894C1.06814 12.2654 1.14762 12.8792 1.44381 13.3969L4.91256 19.4063C5.60974 20.6078 6.63433 21.5862 7.86671 22.2272C9.09909 22.8682 10.4884 23.1455 11.8724 23.0265C13.2564 22.9076 14.5781 22.3974 15.683 21.5555C16.788 20.7136 17.6306 19.5747 18.1126 18.2719C19.3053 17.1382 20.0836 15.6374 20.3233 14.0094C20.5629 12.3813 20.2499 10.7199 19.4344 9.29064L17.8407 6.53439ZM9.44069 4.82814C9.47902 4.68642 9.54519 4.55375 9.63533 4.43786C9.72546 4.32197 9.83776 4.22518 9.96568 4.15314C10.0937 4.07919 10.235 4.0312 10.3816 4.0119C10.5282 3.99261 10.6771 4.0024 10.8199 4.04071C10.9627 4.07902 11.0966 4.1451 11.2138 4.23517C11.331 4.32524 11.4294 4.43754 11.5032 4.56564L13.6313 8.24064C13.3802 8.29059 13.1393 8.3825 12.9188 8.51252C12.572 8.70489 12.2862 8.99073 12.0938 9.33751L10.6313 6.79689C10.4064 6.41635 10.078 6.1075 9.68443 5.90626L9.55319 5.69064C9.40453 5.42885 9.36416 5.1193 9.44069 4.82814ZM5.76568 5.22189C5.82293 5.0065 5.94285 4.81297 6.11025 4.66584C6.27764 4.51871 6.48497 4.42462 6.70592 4.39549C6.92687 4.36637 7.1515 4.40352 7.3513 4.50225C7.55111 4.60097 7.71708 4.75682 7.82819 4.95001L8.26881 5.70939C7.93994 5.77023 7.62877 5.90361 7.35794 6.09984C7.08711 6.29607 6.86344 6.55021 6.70318 6.84376C6.51203 6.61648 6.2758 6.43133 6.00943 6.30001L5.87818 6.07502C5.73009 5.81645 5.68968 5.51 5.76568 5.22189ZM14.3438 21.1031C12.9224 21.9228 11.2338 22.1453 9.64857 21.7217C8.06331 21.2982 6.71076 20.2632 5.88756 18.8438L2.41881 12.8344C2.34494 12.7064 2.29701 12.565 2.27777 12.4185C2.25852 12.2719 2.26833 12.123 2.30663 11.9802C2.34494 11.8374 2.41099 11.7036 2.50101 11.5864C2.59104 11.4691 2.70327 11.3708 2.83131 11.2969C2.95935 11.223 3.10068 11.1751 3.24724 11.1558C3.3938 11.1366 3.54272 11.1464 3.68549 11.1847C3.82826 11.223 3.96209 11.2891 4.07933 11.3791C4.19658 11.4691 4.29494 11.5814 4.36881 11.7094L6.61881 15.6094C6.66821 15.695 6.73928 15.766 6.82486 15.8154C6.91044 15.8647 7.00751 15.8907 7.10631 15.8906C7.20479 15.8891 7.30139 15.8633 7.38756 15.8156C7.45161 15.7787 7.50776 15.7296 7.55279 15.6709C7.59783 15.6123 7.63087 15.5454 7.65002 15.474C7.66918 15.4026 7.67407 15.3281 7.66443 15.2549C7.65478 15.1816 7.63079 15.1109 7.59381 15.0469L4.03131 8.87814C3.88213 8.61955 3.84177 8.3123 3.91913 8.02396C3.99649 7.73562 4.18522 7.48982 4.44381 7.34064C4.7024 7.19146 5.00965 7.1511 5.29799 7.22846C5.58633 7.30582 5.83213 7.49455 5.98131 7.75314L9.54381 13.9219C9.58074 13.9859 9.62993 14.042 9.68855 14.087C9.74717 14.1321 9.81408 14.1651 9.88547 14.1842C9.95685 14.2034 10.0313 14.2083 10.1046 14.1987C10.1779 14.189 10.2485 14.1651 10.3126 14.1281C10.3766 14.0912 10.4327 14.042 10.4777 13.9834C10.5227 13.9248 10.5557 13.8579 10.5749 13.7865C10.5941 13.7151 10.599 13.6406 10.5893 13.5674C10.5797 13.4941 10.5557 13.4234 10.5188 13.3594L7.70631 8.48439C7.55822 8.22583 7.51781 7.91938 7.59381 7.63126C7.63103 7.48785 7.69668 7.35336 7.78686 7.2358C7.87705 7.11824 7.98993 7.01999 8.11881 6.94689C8.37793 6.80004 8.6844 6.76099 8.97206 6.83817C9.25973 6.91535 9.5055 7.10256 9.65631 7.35939L13.5938 14.1844C13.6432 14.27 13.7143 14.341 13.7999 14.3904C13.8854 14.4397 13.9825 14.4657 14.0813 14.4656C14.1796 14.463 14.276 14.4373 14.3626 14.3906C14.4901 14.3144 14.5829 14.1915 14.6214 14.048C14.6599 13.9046 14.641 13.7517 14.5688 13.6219L13.0688 11.0156C12.9951 10.8883 12.9473 10.7477 12.9281 10.6019C12.9089 10.456 12.9188 10.3078 12.9571 10.1658C12.9955 10.0237 13.0615 9.89068 13.1515 9.77428C13.2414 9.65788 13.3535 9.56042 13.4813 9.48751C13.6077 9.41213 13.7479 9.36274 13.8936 9.34221C14.0394 9.32169 14.1878 9.33046 14.3301 9.368C14.4724 9.40554 14.6058 9.47111 14.7224 9.56085C14.8391 9.65059 14.9367 9.76271 15.0094 9.89064L16.6032 12.6563C17.0101 13.3591 17.2744 14.1352 17.3811 14.9403C17.4877 15.7454 17.4346 16.5636 17.2248 17.3481C17.0149 18.1327 16.6525 18.8681 16.1581 19.5125C15.6638 20.1568 15.0473 20.6973 14.3438 21.1031ZM18.5626 15.8438C18.5835 14.5273 18.243 13.2302 17.5782 12.0938L15.9844 9.32814C15.7652 8.94871 15.4392 8.64221 15.0469 8.44689L14.9157 8.22189C14.8399 8.09482 14.7908 7.95362 14.7715 7.80693C14.7521 7.66024 14.7629 7.51114 14.8032 7.36876C14.8404 7.22535 14.9061 7.09086 14.9962 6.9733C15.0864 6.85574 15.1993 6.75749 15.3282 6.68439C15.5873 6.53754 15.8938 6.49849 16.1814 6.57567C16.4691 6.65285 16.7149 6.84006 16.8657 7.09689L18.4594 9.85314C18.9775 10.763 19.2585 11.7884 19.2765 12.8353C19.2945 13.8821 19.049 14.9167 18.5626 15.8438ZM15.6469 2.36251L16.0407 0.90939C16.0923 0.782159 16.1887 0.678208 16.3117 0.617128C16.4347 0.556049 16.5757 0.54206 16.7083 0.577798C16.8409 0.613536 16.9558 0.696533 17.0314 0.811145C17.107 0.925758 17.1381 1.06407 17.1188 1.20001L16.7344 2.65314C16.703 2.77281 16.6323 2.87848 16.5338 2.95325C16.4352 3.02803 16.3144 3.0676 16.1907 3.06564C16.143 3.06863 16.0953 3.06226 16.0501 3.04689C15.906 3.00939 15.7826 2.9163 15.7071 2.78801C15.6315 2.65973 15.6099 2.50672 15.6469 2.36251ZM18.0938 3.28127L18.9469 2.05314C19.0327 1.93006 19.1639 1.8461 19.3116 1.81973C19.4592 1.79336 19.6114 1.82673 19.7344 1.91251C19.8575 1.9983 19.9415 2.12946 19.9678 2.27714C19.9942 2.42483 19.9608 2.57694 19.8751 2.70001L19.0126 3.92814C18.9618 4.00331 18.8934 4.06486 18.8133 4.10737C18.7332 4.14987 18.6439 4.17203 18.5532 4.17189C18.4363 4.16922 18.3225 4.13346 18.2251 4.06876C18.1048 3.98054 18.0238 3.84882 17.9993 3.70171C17.9748 3.5546 18.0087 3.40372 18.0938 3.28127ZM21.9469 5.05314L20.7188 5.90626C20.6235 5.97524 20.5083 6.01142 20.3907 6.00939C20.2718 6.00816 20.1563 5.96926 20.0609 5.8983C19.9654 5.82734 19.8949 5.72795 19.8595 5.61442C19.8241 5.50089 19.8256 5.37906 19.8638 5.26642C19.9019 5.15378 19.9748 5.05614 20.0719 4.98751L21.3001 4.12501C21.4231 4.03923 21.5753 4.00586 21.7229 4.03223C21.8706 4.0586 22.0018 4.14256 22.0876 4.26564C22.1733 4.38872 22.2067 4.54083 22.1803 4.68851C22.154 4.8362 22.07 4.96736 21.9469 5.05314Z" fill="#111827"/>
</svg>
