<svg width="25" height="25" viewBox="0 0 25 25" fill="none" xmlns="http://www.w3.org/2000/svg">
<path d="M20.9406 7.32L15.1806 3.29C13.6106 2.19 11.2006 2.25 9.69063 3.42L4.68062 7.33C3.68062 8.11 2.89062 9.71 2.89062 10.97V17.87C2.89062 20.42 4.96062 22.5 7.51062 22.5H18.2906C20.8406 22.5 22.9106 20.43 22.9106 17.88V11.1C22.9106 9.75 22.0406 8.09 20.9406 7.32ZM13.6506 18.5C13.6506 18.91 13.3106 19.25 12.9006 19.25C12.4906 19.25 12.1506 18.91 12.1506 18.5V15.5C12.1506 15.09 12.4906 14.75 12.9006 14.75C13.3106 14.75 13.6506 15.09 13.6506 15.5V18.5Z" fill="#E95C16"/>
</svg>
