<svg width="25" height="25" viewBox="0 0 25 25" fill="none" xmlns="http://www.w3.org/2000/svg">
<path d="M18.6904 23.25H7.11039C4.37039 23.25 2.15039 21.02 2.15039 18.28V10.87C2.15039 9.50997 2.99039 7.79997 4.07039 6.95997L9.46039 2.75997C11.0804 1.49997 13.6704 1.43997 15.3504 2.61997L21.5304 6.94997C22.7204 7.77997 23.6504 9.55997 23.6504 11.01V18.29C23.6504 21.02 21.4304 23.25 18.6904 23.25ZM10.3804 3.93997L4.99039 8.13997C4.28039 8.69997 3.65039 9.96997 3.65039 10.87V18.28C3.65039 20.19 5.20039 21.75 7.11039 21.75H18.6904C20.6004 21.75 22.1504 20.2 22.1504 18.29V11.01C22.1504 10.05 21.4604 8.71997 20.6704 8.17997L14.4904 3.84997C13.3504 3.04997 11.4704 3.08997 10.3804 3.93997Z" fill="#9CA3AF"/>
<path d="M12.9004 19.25C12.4904 19.25 12.1504 18.91 12.1504 18.5V15.5C12.1504 15.09 12.4904 14.75 12.9004 14.75C13.3104 14.75 13.6504 15.09 13.6504 15.5V18.5C13.6504 18.91 13.3104 19.25 12.9004 19.25Z" fill="#9CA3AF"/>
</svg>
