<svg width="20" height="20" viewBox="0 0 20 20" fill="none" xmlns="http://www.w3.org/2000/svg">
<path d="M11.2706 13.3334H14.9247L13.2639 9.20502L11.2706 13.3334ZM15.5956 15H10.4656L9.08391 17.8625C8.98777 18.0617 8.81646 18.2144 8.60767 18.2873C8.39888 18.3601 8.16971 18.347 7.97058 18.2509C7.77144 18.1547 7.61866 17.9834 7.54583 17.7746C7.473 17.5658 7.4861 17.3367 7.58224 17.1375L11.7631 8.48085C11.9036 8.19013 12.1255 7.94647 12.4018 7.77948C12.6782 7.6125 12.9971 7.52939 13.3198 7.54024C13.6425 7.5511 13.9551 7.65546 14.2196 7.84064C14.4841 8.02582 14.6891 8.28384 14.8097 8.58335L18.2731 17.1892C18.3555 17.3943 18.3531 17.6237 18.2664 17.8271C18.1796 18.0304 18.0157 18.1909 17.8106 18.2734C17.6055 18.3558 17.376 18.3534 17.1727 18.2666C16.9694 18.1799 16.8088 18.016 16.7264 17.8109L15.5956 15ZM2.49974 1.66669H9.16641C9.38742 1.66669 9.59938 1.75448 9.75566 1.91076C9.91195 2.06705 9.99974 2.27901 9.99974 2.50002C9.99974 2.72103 9.91195 2.933 9.75566 3.08928C9.59938 3.24556 9.38742 3.33335 9.16641 3.33335H2.49974C2.27873 3.33335 2.06677 3.24556 1.91049 3.08928C1.75421 2.933 1.66641 2.72103 1.66641 2.50002C1.66641 2.27901 1.75421 2.06705 1.91049 1.91076C2.06677 1.75448 2.27873 1.66669 2.49974 1.66669V1.66669ZM2.49974 5.83335C2.27873 5.83335 2.06677 5.74556 1.91049 5.58928C1.75421 5.433 1.66641 5.22103 1.66641 5.00002C1.66641 4.77901 1.75421 4.56705 1.91049 4.41076C2.06677 4.25448 2.27873 4.16669 2.49974 4.16669H8.33558C8.62744 4.16678 8.91416 4.24352 9.16706 4.38922C9.41995 4.53492 9.63015 4.74448 9.77662 4.99693C9.9231 5.24937 10.0007 5.53586 10.0017 5.82772C10.0027 6.11958 9.92701 6.40659 9.78224 6.66002C8.99474 8.03835 8.12141 9.03002 7.14474 9.62169C5.91808 10.3659 4.37808 10.765 2.53058 10.8325C2.4196 10.8394 2.30836 10.824 2.20341 10.7873C2.09846 10.7505 2.00193 10.6932 1.91951 10.6185C1.83708 10.5439 1.77043 10.4535 1.72347 10.3527C1.67651 10.2519 1.65019 10.1428 1.64608 10.0316C1.64196 9.92052 1.66013 9.8097 1.6995 9.70571C1.73888 9.60172 1.79867 9.50666 1.87534 9.42613C1.95202 9.34561 2.04404 9.28124 2.14598 9.23682C2.24792 9.19241 2.35772 9.16885 2.46891 9.16752C4.05058 9.10919 5.31808 8.78085 6.28058 8.19669C6.98641 7.76919 7.67724 6.98502 8.33558 5.83335H2.49974Z" fill="#9CA3AF"/>
</svg>
