<svg width="24" height="24" viewBox="0 0 24 24" fill="none" xmlns="http://www.w3.org/2000/svg">
<path d="M16 12V12.01M3 20L4.3 16.1C3.17644 14.4383 2.76999 12.4704 3.15622 10.5623C3.54244 8.65418 4.69506 6.93566 6.39977 5.72626C8.10447 4.51686 10.2453 3.89889 12.4241 3.98723C14.6029 4.07557 16.6715 4.86422 18.2453 6.20655C19.819 7.54887 20.7909 9.35353 20.9801 11.285C21.1693 13.2164 20.563 15.1432 19.2739 16.7071C17.9848 18.271 16.1007 19.3656 13.9718 19.7873C11.8429 20.2091 9.6142 19.9293 7.7 19L3 20ZM12 12V12.01V12ZM8 12V12.01V12Z" stroke="#111827" stroke-width="1.5" stroke-linecap="round" stroke-linejoin="round"/>
</svg>
