<svg width="20" height="21" viewBox="0 0 20 21" fill="none" xmlns="http://www.w3.org/2000/svg">
<path d="M9.99967 18C13.6755 18 16.6663 15.0092 16.6663 11.3333C16.6663 8.54167 14.9397 6.14917 12.4997 5.1575V7.01C13.2588 7.44827 13.8893 8.07839 14.3281 8.83719C14.7669 9.59599 14.9985 10.4568 14.9997 11.3333C14.9997 14.0908 12.7572 16.3333 9.99967 16.3333C7.24217 16.3333 4.99967 14.0908 4.99967 11.3333C5.00078 10.4568 5.23234 9.59594 5.67113 8.83712C6.10992 8.07831 6.74052 7.4482 7.49967 7.01V5.1575C5.05967 6.14917 3.33301 8.54167 3.33301 11.3333C3.33301 15.0092 6.32384 18 9.99967 18Z" fill="#DD3333"/>
<path d="M9.16699 2.16666H10.8337V10.5H9.16699V2.16666Z" fill="#DD3333"/>
</svg>
