<svg width="20" height="20" viewBox="0 0 20 20" fill="none" xmlns="http://www.w3.org/2000/svg">
<path d="M17.8829 4.23148C17.7593 4.16658 17.6213 4.13371 17.4817 4.1359C17.3421 4.13808 17.2053 4.17524 17.0837 4.24398C16.5137 4.56815 15.9546 4.72481 15.3729 4.72481C13.6771 4.72481 12.0796 3.36731 10.6046 1.89981C10.2921 1.58898 9.71874 1.58898 9.40624 1.89981C8.01124 3.28981 6.34957 4.70981 4.60957 4.70981C4.03457 4.70981 3.48374 4.55648 2.9279 4.24231C2.67957 4.10398 2.37957 4.09981 2.1279 4.23231C1.87624 4.36481 1.7104 4.61648 1.6879 4.89981C1.67874 5.00731 0.901237 15.6265 9.75707 18.2673C9.83437 18.2906 9.91467 18.3024 9.9954 18.3023H10.0179C10.0987 18.3023 10.1779 18.2906 10.2554 18.2681C19.1362 15.6265 18.3346 5.00481 18.3254 4.89815C18.3135 4.75882 18.2667 4.62473 18.1894 4.50823C18.1121 4.39172 18.0067 4.29655 17.8829 4.23148ZM10.0062 16.5998C4.1904 14.7206 3.39457 8.75648 3.3279 6.20231C3.74874 6.31898 4.17707 6.37648 4.60874 6.37648C6.6854 6.37648 8.48374 5.07065 10.0054 3.64065C11.5829 5.13065 13.3246 6.39148 15.3737 6.39148C15.8154 6.39148 16.2546 6.32981 16.6862 6.20815C16.6246 8.76231 15.8354 14.7223 10.0062 16.5998Z" fill="#9CA3AF"/>
</svg>
